<mxfile host="app.diagrams.net" agent="Mozilla/5.0 (Windows NT 10.0; Win64; x64) AppleWebKit/537.36 (KHTML, like Gecko) Chrome/139.0.0.0 Safari/537.36" version="28.2.5">
  <diagram name="第 1 页" id="KLXsUkDyBYf1RGe1IkaH">
    <mxGraphModel dx="2061" dy="815" grid="1" gridSize="10" guides="1" tooltips="1" connect="1" arrows="1" fold="1" page="1" pageScale="1" pageWidth="827" pageHeight="1169" math="0" shadow="0">
      <root>
        <mxCell id="0" />
        <mxCell id="1" parent="0" />
        <mxCell id="CcnEAllUlsCNX368QIHx-1" value="&lt;p style=&quot;line-height: 35pt;&quot; align=&quot;center&quot; class=&quot;16&quot;&gt;&lt;span style=&quot;font-family: 方正小标宋简体;&quot;&gt;&lt;font style=&quot;font-size: 18px;&quot;&gt;&lt;font style=&quot;&quot; face=&quot;方正小标宋简体&quot;&gt;泸州市低空政务&lt;/font&gt;&lt;font style=&quot;&quot; face=&quot;方正小标宋简体&quot;&gt;“一网统飞”平台&lt;/font&gt;&lt;/font&gt;&lt;/span&gt;&lt;span style=&quot;mso-spacerun:&#39;yes&#39;;font-family:方正小标宋简体;mso-ascii-font-family:&#39;Times New Roman&#39;;&lt;br/&gt;mso-hansi-font-family:&#39;Times New Roman&#39;;mso-bidi-font-family:&#39;Times New Roman&#39;;font-size:24.0000pt;&quot;&gt;&lt;/span&gt;&lt;/p&gt;" style="rounded=1;whiteSpace=wrap;html=1;" vertex="1" parent="1">
          <mxGeometry x="200" y="60" width="390" height="60" as="geometry" />
        </mxCell>
        <mxCell id="CcnEAllUlsCNX368QIHx-4" value="低空航路划设子系统" style="rounded=1;whiteSpace=wrap;html=1;" vertex="1" parent="1">
          <mxGeometry x="90" y="181" width="120" height="60" as="geometry" />
        </mxCell>
        <mxCell id="CcnEAllUlsCNX368QIHx-5" value="AI场景算法组件子系统" style="rounded=1;whiteSpace=wrap;html=1;" vertex="1" parent="1">
          <mxGeometry x="770" y="181" width="120" height="60" as="geometry" />
        </mxCell>
        <mxCell id="CcnEAllUlsCNX368QIHx-6" value="大屏显示子系统" style="rounded=1;whiteSpace=wrap;html=1;" vertex="1" parent="1">
          <mxGeometry x="-60" y="181" width="120" height="60" as="geometry" />
        </mxCell>
        <mxCell id="CcnEAllUlsCNX368QIHx-8" value="管理信息子系统" style="rounded=1;whiteSpace=wrap;html=1;" vertex="1" parent="1">
          <mxGeometry x="590" y="181" width="120" height="60" as="geometry" />
        </mxCell>
        <mxCell id="CcnEAllUlsCNX368QIHx-9" value="工单管理子系统" style="rounded=1;whiteSpace=wrap;html=1;" vertex="1" parent="1">
          <mxGeometry x="420" y="181" width="120" height="60" as="geometry" />
        </mxCell>
        <mxCell id="CcnEAllUlsCNX368QIHx-10" value="低空飞行控制子系统" style="rounded=1;whiteSpace=wrap;html=1;" vertex="1" parent="1">
          <mxGeometry x="250" y="181" width="120" height="60" as="geometry" />
        </mxCell>
        <mxCell id="CcnEAllUlsCNX368QIHx-11" value="大屏主页" style="rounded=1;whiteSpace=wrap;html=1;textDirection=vertical-lr;horizontal=1;" vertex="1" parent="1">
          <mxGeometry x="-230" y="300" width="40" height="120" as="geometry" />
        </mxCell>
        <mxCell id="CcnEAllUlsCNX368QIHx-12" value="在线设备" style="rounded=1;whiteSpace=wrap;html=1;textDirection=vertical-lr;" vertex="1" parent="1">
          <mxGeometry x="-163" y="300" width="40" height="120" as="geometry" />
        </mxCell>
        <mxCell id="CcnEAllUlsCNX368QIHx-13" value="机场基站" style="rounded=1;whiteSpace=wrap;html=1;textDirection=vertical-lr;" vertex="1" parent="1">
          <mxGeometry x="-96" y="300" width="40" height="120" as="geometry" />
        </mxCell>
        <mxCell id="CcnEAllUlsCNX368QIHx-14" value="权限展示" style="rounded=1;whiteSpace=wrap;html=1;horizontal=1;textDirection=vertical-lr;" vertex="1" parent="1">
          <mxGeometry x="-380" y="500" width="46" height="187" as="geometry" />
        </mxCell>
        <mxCell id="CcnEAllUlsCNX368QIHx-17" value="权限展示" style="rounded=1;whiteSpace=wrap;html=1;horizontal=1;textDirection=vertical-lr;" vertex="1" parent="1">
          <mxGeometry x="-325" y="500" width="46" height="187" as="geometry" />
        </mxCell>
        <mxCell id="CcnEAllUlsCNX368QIHx-18" value="权限展示" style="rounded=1;whiteSpace=wrap;html=1;horizontal=1;textDirection=vertical-lr;" vertex="1" parent="1">
          <mxGeometry x="-264" y="499" width="46" height="187" as="geometry" />
        </mxCell>
        <mxCell id="CcnEAllUlsCNX368QIHx-19" value="权限展示" style="rounded=1;whiteSpace=wrap;html=1;horizontal=1;textDirection=vertical-lr;" vertex="1" parent="1">
          <mxGeometry x="-209" y="499" width="46" height="187" as="geometry" />
        </mxCell>
      </root>
    </mxGraphModel>
  </diagram>
</mxfile>
